<svg width="140" height="32" viewBox="0 0 140 32" fill="none" xmlns="http://www.w3.org/2000/svg">
<path d="M27.3965 13.7938C27.93 13.6851 28.2782 13.163 28.1282 12.6396C27.3624 9.96639 25.731 7.611 23.4762 5.95221C20.9559 4.09801 17.8364 3.24651 14.7235 3.56304C11.6106 3.87957 8.72635 5.34154 6.63078 7.66511C4.53521 9.98867 3.37782 13.008 3.38332 16.137C3.38882 19.2659 4.55682 22.2812 6.66055 24.5974C8.76428 26.9136 11.6536 28.3654 14.7676 28.671C17.8816 28.9766 20.9981 28.1141 23.5119 26.2511C25.7608 24.5843 27.3839 22.2232 28.1404 19.5473C28.2885 19.0234 27.9385 18.5025 27.4046 18.3958C26.8707 18.289 26.3558 18.6371 26.2002 19.1588C25.5447 21.3556 24.1939 23.2916 22.338 24.667C20.217 26.2389 17.5876 26.9666 14.9602 26.7088C12.3328 26.451 9.895 25.226 8.12002 23.2718C6.34505 21.3176 5.35958 18.7735 5.35494 16.1335C5.35029 13.4935 6.32681 10.946 8.09491 8.98557C9.863 7.02511 12.2965 5.79161 14.9229 5.52455C17.5494 5.25748 20.1814 5.97591 22.3079 7.54035C24.1686 8.90927 25.5262 10.8405 26.1894 13.035C26.3469 13.5561 26.863 13.9024 27.3965 13.7938Z" fill="#1A1A1A"></path>
<path d="M22.3639 13.7283C22.8003 13.5673 23.0277 13.0804 22.8198 12.6643C22.1492 11.3221 21.0956 10.2004 19.7837 9.44707C18.2273 8.5533 16.4064 8.23472 14.639 8.54699C12.8717 8.85927 11.2702 9.78254 10.1143 11.1555C8.95844 12.5285 8.32168 14.264 8.31525 16.0587C8.30882 17.8534 8.93312 19.5934 10.0791 20.9746C11.2251 22.3559 12.8199 23.2906 14.585 23.6155C16.3501 23.9405 18.1733 23.6349 19.736 22.7524C21.0532 22.0084 22.1149 20.8943 22.7951 19.5569C23.0059 19.1424 22.7821 18.6538 22.3469 18.4897C21.9116 18.3257 21.4309 18.5494 21.2073 18.9572C20.6752 19.9275 19.8809 20.7362 18.9077 21.2858C17.6888 21.9742 16.2667 22.2125 14.89 21.9591C13.5132 21.7056 12.2692 20.9765 11.3754 19.8992C10.4815 18.8218 9.99452 17.4646 9.99954 16.0647C10.0046 14.6648 10.5012 13.3112 11.4028 12.2403C12.3044 11.1693 13.5535 10.4492 14.9321 10.2056C16.3107 9.96203 17.731 10.2105 18.9449 10.9077C19.9141 11.4642 20.7026 12.2786 21.2277 13.2527C21.4484 13.6621 21.9275 13.8892 22.3639 13.7283Z" fill="#1A1A1A"></path>
<path d="M24.7133 13.512C25.101 13.3994 25.3267 12.9927 25.1858 12.6143C24.6418 11.154 23.7582 9.83985 22.6038 8.78276C21.2692 7.56073 19.6242 6.72936 17.8488 6.37963C16.0734 6.02991 14.236 6.17531 12.5377 6.79992C11.0686 7.34022 9.75256 8.22109 8.69541 9.36604C8.42153 9.66266 8.47608 10.1246 8.79217 10.3758C9.10825 10.627 9.5659 10.5718 9.84358 10.2787C10.7311 9.34198 11.825 8.61978 13.0423 8.17209C14.4889 7.64005 16.054 7.5162 17.5662 7.81409C19.0785 8.11198 20.4797 8.82013 21.6164 9.86103C22.573 10.7369 23.3113 11.82 23.7773 13.0234C23.9231 13.3999 24.3256 13.6245 24.7133 13.512Z" fill="#1A1A1A"></path>
<path d="M11.3682 23.9622C11.166 24.3116 11.2843 24.7615 11.6478 24.9372C12.7787 25.4842 14.0057 25.8111 15.2634 25.8979C16.7647 26.0014 18.2697 25.7602 19.6633 25.1925C21.057 24.6249 22.3022 23.7459 23.3038 22.6228C24.143 21.682 24.7924 20.5908 25.2193 19.4093C25.3565 19.0296 25.1268 18.6251 24.738 18.5164C24.3492 18.4077 23.9488 18.6363 23.8068 19.0142C23.4431 19.9815 22.9033 20.8754 22.2127 21.6497C21.3596 22.6063 20.2989 23.355 19.1118 23.8385C17.9247 24.322 16.6428 24.5275 15.3641 24.4393C14.329 24.3679 13.3182 24.1055 12.3822 23.6676C12.0165 23.4965 11.5704 23.6127 11.3682 23.9622Z" fill="#1A1A1A"></path>
<path d="M21.3331 19.1256C21.3331 18.7297 21.6541 18.4087 22.05 18.4087H24.5159C24.9118 18.4087 25.2328 18.7297 25.2328 19.1256C25.2328 19.5215 24.9118 19.8424 24.5159 19.8424H22.05C21.6541 19.8424 21.3331 19.5215 21.3331 19.1256Z" fill="#1A1A1A"></path>
<path d="M21.3331 13.1041C21.3331 12.7082 21.6541 12.3872 22.05 12.3872H24.5159C24.9118 12.3872 25.2328 12.7082 25.2328 13.1041C25.2328 13.5 24.9118 13.8209 24.5159 13.8209H22.05C21.6541 13.8209 21.3331 13.5 21.3331 13.1041Z" fill="#1A1A1A"></path>
<path d="M46.352 22.16C45.552 22.16 44.8107 22.016 44.128 21.728C43.4453 21.4293 42.848 21.0187 42.336 20.496C41.8347 19.9733 41.4453 19.3653 41.168 18.672C40.8907 17.9787 40.752 17.2373 40.752 16.448C40.752 15.648 40.8907 14.9013 41.168 14.208C41.4453 13.5147 41.8347 12.912 42.336 12.4C42.848 11.8773 43.44 11.472 44.112 11.184C44.7947 10.8853 45.536 10.736 46.336 10.736C47.2107 10.736 47.9787 10.8853 48.64 11.184C49.3013 11.4827 49.888 11.888 50.4 12.4L49.36 13.44C49.008 13.0453 48.576 12.736 48.064 12.512C47.5627 12.288 46.9867 12.176 46.336 12.176C45.7493 12.176 45.2107 12.2827 44.72 12.496C44.2293 12.6987 43.8027 12.992 43.44 13.376C43.0773 13.76 42.7947 14.2133 42.592 14.736C42.4 15.2587 42.304 15.8293 42.304 16.448C42.304 17.0667 42.4 17.6373 42.592 18.16C42.7947 18.6827 43.0773 19.136 43.44 19.52C43.8027 19.904 44.2293 20.2027 44.72 20.416C45.2107 20.6187 45.7493 20.72 46.336 20.72C47.0293 20.72 47.632 20.608 48.144 20.384C48.656 20.1493 49.088 19.8347 49.44 19.44L50.48 20.464C49.968 20.9973 49.3653 21.4133 48.672 21.712C47.9893 22.0107 47.216 22.16 46.352 22.16ZM52.0716 22V10.576H53.5116V22H52.0716ZM58.8505 22.16C58.1572 22.16 57.5278 21.9893 56.9625 21.648C56.3972 21.296 55.9492 20.8213 55.6185 20.224C55.2985 19.6267 55.1385 18.9547 55.1385 18.208C55.1385 17.4613 55.2985 16.7893 55.6185 16.192C55.9492 15.5947 56.3918 15.12 56.9465 14.768C57.5118 14.416 58.1465 14.24 58.8505 14.24C59.4265 14.24 59.9385 14.3627 60.3865 14.608C60.8452 14.8427 61.2132 15.1733 61.4905 15.6C61.7678 16.016 61.9225 16.5013 61.9545 17.056V19.344C61.9225 19.888 61.7678 20.3733 61.4905 20.8C61.2238 21.2267 60.8612 21.5627 60.4025 21.808C59.9545 22.0427 59.4372 22.16 58.8505 22.16ZM59.0905 20.8C59.8052 20.8 60.3812 20.56 60.8185 20.08C61.2558 19.5893 61.4745 18.9653 61.4745 18.208C61.4745 17.6853 61.3732 17.232 61.1705 16.848C60.9785 16.4533 60.7012 16.1493 60.3385 15.936C59.9758 15.712 59.5545 15.6 59.0745 15.6C58.5945 15.6 58.1678 15.712 57.7945 15.936C57.4318 16.16 57.1438 16.4693 56.9305 16.864C56.7278 17.248 56.6265 17.6907 56.6265 18.192C56.6265 18.704 56.7278 19.1573 56.9305 19.552C57.1438 19.936 57.4372 20.24 57.8105 20.464C58.1838 20.688 58.6105 20.8 59.0905 20.8ZM61.3785 22V19.952L61.6505 18.096L61.3785 16.256V14.4H62.8345V22H61.3785ZM64.947 22V14.4H66.387V22H64.947ZM65.667 12.88C65.4003 12.88 65.1817 12.7947 65.011 12.624C64.8403 12.4427 64.755 12.2187 64.755 11.952C64.755 11.696 64.8403 11.4827 65.011 11.312C65.1817 11.1307 65.4003 11.04 65.667 11.04C65.9337 11.04 66.1523 11.1307 66.323 11.312C66.4937 11.4827 66.579 11.696 66.579 11.952C66.579 12.2187 66.4937 12.4427 66.323 12.624C66.1523 12.7947 65.9337 12.88 65.667 12.88ZM68.5091 22V14.4H69.9491V22H68.5091ZM73.6451 22V17.408C73.6451 16.8427 73.4691 16.4 73.1171 16.08C72.7758 15.7493 72.3438 15.584 71.8211 15.584C71.4691 15.584 71.1545 15.6587 70.8771 15.808C70.5998 15.9573 70.3758 16.1653 70.2051 16.432C70.0345 16.6987 69.9491 17.0187 69.9491 17.392L69.3571 17.104C69.3571 16.528 69.4798 16.0267 69.7251 15.6C69.9811 15.1733 70.3278 14.8427 70.7651 14.608C71.2025 14.3627 71.6931 14.24 72.2371 14.24C72.7705 14.24 73.2505 14.3573 73.6771 14.592C74.1145 14.8267 74.4558 15.1573 74.7011 15.584C74.9571 16.0107 75.0851 16.5173 75.0851 17.104V22H73.6451ZM78.7811 22V17.408C78.7811 16.8427 78.6051 16.4 78.2531 16.08C77.9118 15.7493 77.4851 15.584 76.9731 15.584C76.6211 15.584 76.3011 15.6587 76.0131 15.808C75.7358 15.9573 75.5118 16.1653 75.3411 16.432C75.1705 16.6987 75.0851 17.0187 75.0851 17.392L74.2691 17.104C74.3011 16.5173 74.4558 16.016 74.7331 15.6C75.0211 15.1733 75.3891 14.8427 75.8371 14.608C76.2851 14.3627 76.7758 14.24 77.3091 14.24C77.8638 14.24 78.3598 14.3573 78.7971 14.592C79.2345 14.8267 79.5811 15.1573 79.8371 15.584C80.1038 16.0107 80.2371 16.5227 80.2371 17.12V22H78.7811ZM85.5406 22.16C84.666 22.16 83.9193 22 83.3006 21.68C82.682 21.36 82.1326 20.896 81.6526 20.288L82.6766 19.264C83.0286 19.7547 83.434 20.128 83.8926 20.384C84.3513 20.6293 84.9166 20.752 85.5886 20.752C86.25 20.752 86.778 20.608 87.1726 20.32C87.578 20.032 87.7806 19.6373 87.7806 19.136C87.7806 18.72 87.6846 18.384 87.4926 18.128C87.3006 17.872 87.0393 17.664 86.7086 17.504C86.3886 17.3333 86.0366 17.184 85.6526 17.056C85.2686 16.9173 84.8846 16.7733 84.5006 16.624C84.1166 16.464 83.7646 16.272 83.4446 16.048C83.1246 15.8133 82.8633 15.5093 82.6606 15.136C82.4686 14.7627 82.3726 14.2933 82.3726 13.728C82.3726 13.0987 82.522 12.5653 82.8206 12.128C83.13 11.68 83.546 11.3387 84.0686 11.104C84.602 10.8587 85.1993 10.736 85.8606 10.736C86.586 10.736 87.2366 10.88 87.8126 11.168C88.3886 11.4453 88.858 11.8133 89.2206 12.272L88.1966 13.296C87.866 12.912 87.5086 12.624 87.1246 12.432C86.7513 12.24 86.3193 12.144 85.8286 12.144C85.2313 12.144 84.7566 12.2773 84.4046 12.544C84.0526 12.8 83.8766 13.1627 83.8766 13.632C83.8766 14.0053 83.9726 14.3093 84.1646 14.544C84.3673 14.768 84.6286 14.96 84.9486 15.12C85.2686 15.28 85.6206 15.4293 86.0046 15.568C86.3993 15.696 86.7886 15.84 87.1726 16C87.5566 16.16 87.9086 16.3627 88.2286 16.608C88.5486 16.8533 88.8046 17.1733 88.9966 17.568C89.1993 17.952 89.3006 18.4373 89.3006 19.024C89.3006 20.0053 88.9593 20.7733 88.2766 21.328C87.6046 21.8827 86.6926 22.16 85.5406 22.16ZM94.4343 22.16C93.6876 22.16 93.0156 21.984 92.4183 21.632C91.8209 21.28 91.3463 20.8053 90.9943 20.208C90.6423 19.6 90.4663 18.9227 90.4663 18.176C90.4663 17.44 90.6423 16.7787 90.9943 16.192C91.3463 15.5947 91.8209 15.12 92.4183 14.768C93.0156 14.416 93.6876 14.24 94.4343 14.24C95.1703 14.24 95.8369 14.416 96.4343 14.768C97.0423 15.1093 97.5223 15.5787 97.8743 16.176C98.2263 16.7733 98.4023 17.44 98.4023 18.176C98.4023 18.9227 98.2263 19.6 97.8743 20.208C97.5223 20.8053 97.0423 21.28 96.4343 21.632C95.8369 21.984 95.1703 22.16 94.4343 22.16ZM94.4343 20.768C94.9143 20.768 95.3409 20.656 95.7143 20.432C96.0876 20.208 96.3809 19.904 96.5943 19.52C96.8076 19.1253 96.9143 18.6773 96.9143 18.176C96.9143 17.6853 96.8023 17.248 96.5783 16.864C96.3649 16.48 96.0716 16.1813 95.6983 15.968C95.3356 15.744 94.9143 15.632 94.4343 15.632C93.9543 15.632 93.5276 15.744 93.1543 15.968C92.7809 16.1813 92.4876 16.48 92.2743 16.864C92.0609 17.248 91.9543 17.6853 91.9543 18.176C91.9543 18.6773 92.0609 19.1253 92.2743 19.52C92.4876 19.904 92.7809 20.208 93.1543 20.432C93.5276 20.656 93.9543 20.768 94.4343 20.768ZM100.025 22V14.4H101.465V22H100.025ZM101.465 17.664L100.921 17.424C100.921 16.4533 101.145 15.68 101.593 15.104C102.041 14.528 102.686 14.24 103.529 14.24C103.913 14.24 104.259 14.3093 104.569 14.448C104.878 14.576 105.166 14.7947 105.433 15.104L104.489 16.08C104.329 15.9093 104.153 15.7867 103.961 15.712C103.769 15.6373 103.545 15.6 103.289 15.6C102.755 15.6 102.318 15.7707 101.977 16.112C101.635 16.4533 101.465 16.9707 101.465 17.664ZM107.583 22V11.216H109.023V22H107.583ZM105.711 15.712V14.4H110.895V15.712H105.711ZM115.592 22.16C114.834 22.16 114.152 21.9893 113.544 21.648C112.936 21.296 112.456 20.8213 112.104 20.224C111.752 19.6267 111.576 18.9493 111.576 18.192C111.576 17.4453 111.746 16.7733 112.088 16.176C112.44 15.5787 112.909 15.1093 113.496 14.768C114.093 14.416 114.76 14.24 115.496 14.24C116.2 14.24 116.818 14.4 117.352 14.72C117.896 15.04 118.317 15.4827 118.616 16.048C118.925 16.6133 119.08 17.2533 119.08 17.968C119.08 18.0747 119.074 18.192 119.064 18.32C119.053 18.4373 119.032 18.576 119 18.736H112.584V17.536H118.232L117.704 18C117.704 17.488 117.613 17.056 117.432 16.704C117.25 16.3413 116.994 16.064 116.664 15.872C116.333 15.6693 115.933 15.568 115.464 15.568C114.973 15.568 114.541 15.6747 114.168 15.888C113.794 16.1013 113.506 16.4 113.304 16.784C113.101 17.168 113 17.6213 113 18.144C113 18.6773 113.106 19.1467 113.32 19.552C113.533 19.9467 113.837 20.256 114.232 20.48C114.626 20.6933 115.08 20.8 115.592 20.8C116.018 20.8 116.408 20.7253 116.76 20.576C117.122 20.4267 117.432 20.2027 117.688 19.904L118.616 20.848C118.253 21.2747 117.805 21.6 117.272 21.824C116.749 22.048 116.189 22.16 115.592 22.16ZM123.866 22.16C123.162 22.16 122.532 21.9893 121.978 21.648C121.423 21.296 120.98 20.8213 120.65 20.224C120.33 19.6267 120.17 18.9547 120.17 18.208C120.17 17.4613 120.33 16.7893 120.65 16.192C120.98 15.5947 121.423 15.12 121.978 14.768C122.532 14.416 123.162 14.24 123.866 14.24C124.431 14.24 124.943 14.3627 125.402 14.608C125.86 14.8427 126.228 15.1733 126.506 15.6C126.794 16.016 126.954 16.5013 126.986 17.056V19.344C126.954 19.888 126.799 20.3733 126.522 20.8C126.244 21.2267 125.876 21.5627 125.418 21.808C124.959 22.0427 124.442 22.16 123.866 22.16ZM124.106 20.8C124.586 20.8 125.002 20.688 125.354 20.464C125.716 20.24 125.999 19.936 126.202 19.552C126.404 19.1573 126.506 18.7093 126.506 18.208C126.506 17.6853 126.399 17.232 126.186 16.848C125.983 16.464 125.7 16.16 125.338 15.936C124.986 15.712 124.57 15.6 124.09 15.6C123.61 15.6 123.188 15.712 122.826 15.936C122.463 16.16 122.175 16.4693 121.962 16.864C121.759 17.248 121.658 17.6907 121.658 18.192C121.658 18.704 121.759 19.1573 121.962 19.552C122.175 19.936 122.463 20.24 122.826 20.464C123.199 20.688 123.626 20.8 124.106 20.8ZM127.866 22H126.41V19.952L126.682 18.096L126.41 16.256V10.576H127.866V22Z" fill="#1A1A1A"></path>
</svg>